<svg class="icon" style="width: auto;height: auto;vertical-align: middle;fill: currentColor;overflow: hidden;" viewBox="0 0 1024 1024" version="1.1" xmlns="http://www.w3.org/2000/svg" p-id="517"><path d="M628.5824 637.2352m-341.5552 0a341.5552 341.5552 0 1 0 683.1104 0 341.5552 341.5552 0 1 0-683.1104 0Z" fill="#BCEA4B" p-id="518"></path><path d="M233.6768 220.0576c0.3072 0.0512 0.6656 0.0512 0.9728 0.0512 5.2224 0 9.6768-3.9936 10.1888-9.2672l1.28-13.3632c0.512-5.632-3.584-10.6496-9.216-11.1616-5.632-0.5632-10.6496 3.584-11.1616 9.216l-1.28 13.3632c-0.5632 5.632 3.584 10.5984 9.216 11.1616zM627.6608 240.896c25.5488 0 46.336-20.7872 46.336-46.336v-3.584c0-25.5488-20.7872-46.336-46.336-46.336H417.792c-25.5488 0-46.336 20.7872-46.336 46.336v3.584c0 25.5488 20.7872 46.336 46.336 46.336h209.8688zM391.8848 194.56v-3.584c0-14.2848 11.6224-25.856 25.856-25.856h209.8688c14.2848 0 25.856 11.6224 25.856 25.856v3.584c0 14.2848-11.6224 25.856-25.856 25.856H417.792c-14.2848 0-25.9072-11.6224-25.9072-25.856z" fill="#4A5177" p-id="519"></path><path d="M831.2832 539.9552h-68.1984V416c15.616-0.768 30.208-7.7312 41.2672-19.9168 13.2096-14.5408 19.712-34.6112 17.7664-54.9888l-20.224-211.9168c-3.328-34.7648-29.952-60.9792-61.952-60.9792h-445.952c-32 0-58.624 26.2144-61.952 60.9792l-2.3552 24.7808c-0.512 5.632 3.584 10.6496 9.216 11.1616 5.632 0.512 10.6496-3.584 11.1616-9.216l2.3552-24.7296c2.304-24.1664 20.1728-42.4448 41.5744-42.4448h445.9008c21.4016 0 39.2704 18.2272 41.5744 42.4448L801.6896 343.04c1.3824 14.6944-3.1744 28.9792-12.544 39.2704-7.8336 8.6016-18.176 13.3632-29.0304 13.3632H273.7664c-10.9056 0-21.1968-4.7616-29.0304-13.3632-9.3696-10.2912-13.9264-24.6272-12.544-39.2704l9.3184-97.8944c0.512-5.632-3.584-10.6496-9.216-11.1616-5.632-0.512-10.6496 3.584-11.1616 9.216l-9.3184 97.8944c-1.9456 20.3776 4.5056 40.448 17.7664 54.9888 10.9568 12.0832 25.3952 18.9952 40.8576 19.9168v123.9552H196.352c-26.8288 0-48.64 21.8112-48.64 48.64s21.8112 48.64 48.64 48.64h8.2432v335.8208c0 5.632 4.608 10.24 10.24 10.24h42.1888c5.632 0 10.24-4.608 10.24-10.24V759.296h19.7632v187.2896c0 3.584 4.608 6.5024 10.24 6.5024h42.1888c5.632 0 10.24-2.9184 10.24-6.5024V759.296h326.5024v187.2896c0 3.584 4.608 6.5024 10.24 6.5024h42.1888c5.632 0 10.24-2.9184 10.24-6.5024V759.296h20.9408v213.7088c0 5.632 4.608 10.24 10.24 10.24h42.1888c5.632 0 10.24-4.608 10.24-10.24v-335.8208h8.8576c26.8288 0 48.64-21.8112 48.64-48.64-0.0512-26.7776-21.8624-48.5888-48.6912-48.5888zM720.896 416.1536h21.7088v123.8016h-21.7088V416.1536z m-20.48 0v123.8016H333.1072V416.1536h367.3088z m-409.4976 0h21.7088v123.8016h-21.7088V416.1536z m-44.1344 289.4848c-0.0512 0.4096-0.1024 0.8192-0.1024 1.2288v42.1888c0 0.4096 0.0512 0.8192 0.1024 1.2288v212.48h-21.7088v-325.5808h21.7088v68.4544z m40.2432-68.4032v59.4432H267.264v-59.4432h19.7632z m389.1712 0v59.4432H349.6448v-59.4432h326.5536z m42.1376 0v59.4432h-21.7088v-59.4432h21.7088z m-389.1712 0v59.4432h-21.7088v-59.4432h21.7088z m0 302.7968h-21.7088v-180.736h21.7088v180.736z m389.1712 0h-21.7088v-180.736h21.7088v180.736z m41.4208-201.216H267.264v-21.7088h492.544v21.7088z m-20.9408-42.1888v-59.4432h20.9408v59.4432h-20.9408z m63.1296 266.1376h-21.7088v-325.5808h21.7088v325.5808z m29.3376-346.0096H196.352a28.2112 28.2112 0 0 1-28.16-28.16c0-15.5136 12.6464-28.16 28.16-28.16H831.2832c15.5136 0 28.16 12.6464 28.16 28.16s-12.6464 28.16-28.16 28.16z" fill="#4A5177" p-id="520"></path></svg>